<svg id="shield" xmlns="http://www.w3.org/2000/svg" viewBox="0 0 216.08 282.59"><defs><style>.cls-1,.cls-3{fill:none;stroke:#fff;}.cls-1{stroke-miterlimit:10;stroke-width:5px;}.cls-2{fill:#fff;}.cls-3{stroke-miterlimit:1;stroke-width:2px;}</style></defs><title>crest</title><polyline class="cls-1" points="14.46 201.27 109.63 153.34 201.94 202.36"/><polygon class="cls-1" points="212.37 148.88 107.95 91.49 2.5 146.35 2.5 11.14 106.88 2.51 213.56 10.66 212.37 148.88"/><path class="cls-1" d="M195.1,191" transform="translate(-1 -1)"/><path class="cls-1" d="M22.11,190" transform="translate(-1 -1)"/><path class="cls-1" d="M108.47,273.72" transform="translate(-1 -1)"/><path class="cls-1" d="M108.47,273.72" transform="translate(-1 -1)"/><path class="cls-1" d="M213.37,149.88" transform="translate(-1 -1)"/><path class="cls-1" d="M3.5,147.35S6.57,233.62,73.18,280l1.65,1.13-1.1-.75,71.52,0.75c68.21-46,68.13-131.2,68.13-131.2" transform="translate(-1 -1)"/><path class="cls-2" d="M141.48,39l8.33,10.66,1.31,0.64A13.87,13.87,0,0,0,149.95,55h-2.26l-5-11.16-1.92-1.18-1.2.06L138.45,39h3m1-2h-6.7l2.37,7.75,2.76-.13L146.39,57h5.52c-0.26-5.91,2.89-8.54,2.89-8.54h-3.41L142.45,37h0Z" transform="translate(-1 -1)"/><path class="cls-2" d="M166.39,24.13a31,31,0,0,1,8.52,1.35c7.71,2.64,8,11.18,8,11.53v0.13a13.57,13.57,0,0,1-3.79,10.95A8.56,8.56,0,0,0,177,50.86a30.52,30.52,0,0,1-.39-5.91L173,43.73c-3.34,4.8-.63,13.44,0,15.14,0.52,2.87,5.24,6.32,8.09,8.17l1.27,0.31,4.2-.39h0c-3.4,4.59-3.05,7.43-2.7,8.51,1.1,6.75,5,9.63,8,10.58l-2.12,12h-9.48l0.85-2,4.54,0.59,2.26-2V92L187,90.36c-10.33-6.83-10.44-7.2-11-9a21.6,21.6,0,0,0-2.19-5.16c-2.76-4.9-5.84-7-8.34-7.85a7.58,7.58,0,0,0,1.21-5.13l-3.82-.39a4.83,4.83,0,0,1-4.75,3h-0.28l-12.12-3.11-2.29,1-0.55,1.1-5.31-1.2,1.21-2.42,16-.37,1.89-2.51c-0.06-.22-1.33-5.52,4.39-9.84,7.59-5.73,7.52-11.1,7.49-11.69l-3.93-.4a5.92,5.92,0,0,1-2.48,3.13,3.37,3.37,0,0,0-.16-1.92l-0.1-.21L161.15,36a3.28,3.28,0,0,0-3-1.68,7.07,7.07,0,0,0-2.93.78,6.72,6.72,0,0,1-1.82.27,4.31,4.31,0,0,1-.86-0.08l-0.95-1.44c2-1,5.63-2.71,9-4.25,0.3,0,.6,0,0.9,0a10.23,10.23,0,0,1,5.07,1.32L169.23,28a9.56,9.56,0,0,0-6.66-3.45,16.3,16.3,0,0,1,3.81-.41M197,52.66q0.14,0.3.29,0.58A4.75,4.75,0,0,1,197,52.8V52.66m-30.6-30.52a15.24,15.24,0,0,0-7,1.46,5.33,5.33,0,0,0-2.76,3.55,15.32,15.32,0,0,1,4.42-.68,8.13,8.13,0,0,1,6.61,2.78,12,12,0,0,0-6.18-1.66,12.28,12.28,0,0,0-1.44.08s-11.16,5.12-11.3,5.52l2.5,3.81a4.89,4.89,0,0,0,2.16.41A8.81,8.81,0,0,0,156,37a5.47,5.47,0,0,1,2.18-.64,1.3,1.3,0,0,1,1.24.64l0.79,1.44a1.52,1.52,0,0,1-1.05,2l-3.68-.79-2.89,1.71,2.23,4.47s-0.92-2.23,4.86-3.15a8.28,8.28,0,0,0,7-5.65s0.26,4.73-6.7,10-5.12,12-5.12,12l-17.21.39L134.7,65.1,144,67.2l1.25-2.5,12.28,3.15a5.53,5.53,0,0,0,.62,0,6.83,6.83,0,0,0,6.61-4.3s0.66,3.61-3.55,6.11c-0.3.18-.54,0.31-0.72,0.4a6.38,6.38,0,0,1,1.91-.27c2.39,0,6.24,1.18,9.72,7.36,4.5,8-1.71,4.6,13.79,14.84v2.63l-6-.79L177.26,100h14.19l2.76-15.63s-7,0-8.41-9.46c0,0-1.71-3.55,6.17-11a7.37,7.37,0,0,0-.53-5.39C190,56,187,54.72,186.58,52.36s0-3,1.05-3.55a7.18,7.18,0,0,1,3.45-1.32c1.19,0,2.54.58,3.9,2.51v3.28A6.75,6.75,0,0,0,199.46,57a7.23,7.23,0,0,0,1.69.21A5.26,5.26,0,0,0,204.58,56a2.43,2.43,0,0,1-.33,0c-1.16,0-5.07-.56-6.63-7.9a7.36,7.36,0,0,0-6.79-3.8,11.18,11.18,0,0,0-1.62.12s-5.91.53-6,8.54a14.77,14.77,0,0,0,5.25,7s1.31,3-2.1,5l-4.2.39s-7.09-4.6-7.22-7c0,0-3.28-9.19-.26-13.53,0,0-.39,10.11,3.42,12.87,0,0-.92-5.25,2.36-8.14A15.62,15.62,0,0,0,184.88,37s-0.13-10.25-9.33-13.4a32.76,32.76,0,0,0-9.16-1.46h0Zm-5.87,48a1.06,1.06,0,0,0-.41.18,2,2,0,0,0,.41-0.18h0Z" transform="translate(-1 -1)"/><path class="cls-3" d="M171.48,88.08l-5.91,12h-15.1l3-5.65L159.92,95,161,91.5s-7.75-4.73-6.17-10.77,4.07-7.88,5-8.27,11.69,2.49,11.69,10.64c0,0-4.73,2.72-4.2,3.13l-0.13,1.86h4.33" transform="translate(-1 -1)"/><path class="cls-2" d="M81,203.31L89.37,214l1.31,0.64a13.87,13.87,0,0,0-1.18,4.67H87.25l-5-11.16-1.92-1.18-1.2.06L78,203.31h3m1-2h-6.7l2.37,7.75,2.76-.13L86,221.27h5.52c-0.26-5.91,2.89-8.54,2.89-8.54H90.94L82,201.31h0Z" transform="translate(-1 -1)"/><path class="cls-2" d="M105.95,188.45a31,31,0,0,1,8.52,1.35c7.71,2.64,8,11.18,8,11.53v0.13a13.57,13.57,0,0,1-3.79,10.95,8.56,8.56,0,0,0-2.07,2.76,30.52,30.52,0,0,1-.39-5.91L112.55,208c-3.34,4.8-.63,13.44,0,15.14,0.52,2.87,5.24,6.32,8.09,8.17l1.27,0.31,4.2-.39h0c-3.4,4.59-3.05,7.43-2.7,8.51,1.1,6.75,5,9.63,8,10.58l-2.12,12h-9.48l0.85-2,4.54,0.59,2.26-2v-2.63l-0.9-1.67c-10.33-6.83-10.44-7.2-11-9a21.6,21.6,0,0,0-2.19-5.16c-2.76-4.9-5.84-7-8.34-7.85a7.58,7.58,0,0,0,1.21-5.13l-3.82-.39a4.83,4.83,0,0,1-4.75,3H97.45l-12.12-3.11-2.29,1-0.55,1.1L77.19,228l1.21-2.42,16-.37,1.89-2.51c-0.06-.22-1.33-5.52,4.39-9.84,7.59-5.73,7.52-11.1,7.49-11.69l-3.94-.37a5.8,5.8,0,0,1-2.48,3.12,3.37,3.37,0,0,0-.16-1.93l-0.1-.21-0.79-1.45a3.28,3.28,0,0,0-3-1.68,7.07,7.07,0,0,0-2.93.78,6.72,6.72,0,0,1-1.82.27,4.31,4.31,0,0,1-.86-0.08l-0.95-1.44c2-1,5.63-2.71,9-4.25,0.3,0,.6,0,0.9,0a10.23,10.23,0,0,1,5.07,1.32l2.67-2.91a9.56,9.56,0,0,0-6.66-3.45,16.3,16.3,0,0,1,3.81-.41M136.55,217q0.14,0.3.29,0.58a4.76,4.76,0,0,1-.29-0.43V217m-30.6-30.52a15.24,15.24,0,0,0-7,1.46,5.33,5.33,0,0,0-2.76,3.55,15.31,15.31,0,0,1,4.42-.68,8.13,8.13,0,0,1,6.61,2.78A12,12,0,0,0,101,191.9a12.28,12.28,0,0,0-1.44.08s-11.16,5.12-11.3,5.52l2.5,3.81a4.89,4.89,0,0,0,2.16.41,8.81,8.81,0,0,0,2.57-.41,5.47,5.47,0,0,1,2.18-.64,1.3,1.3,0,0,1,1.24.64l0.79,1.44a1.52,1.52,0,0,1-1.05,2L95,203.93l-2.89,1.71,2.23,4.47s-0.92-2.23,4.86-3.15a8.27,8.27,0,0,0,7-5.65s0.26,4.73-6.7,10-5.12,12-5.12,12l-17.21.39-2.89,5.78,9.32,2.1,1.25-2.5,12.28,3.15a5.53,5.53,0,0,0,.62,0,6.83,6.83,0,0,0,6.61-4.3s0.66,3.61-3.55,6.11c-0.3.18-.54,0.31-0.72,0.4a6.38,6.38,0,0,1,1.91-.27c2.39,0,6.24,1.18,9.72,7.36,4.5,8-1.71,4.6,13.79,14.84V259l-6-.79-2.63,6.17H131l2.76-15.63s-7,0-8.41-9.46c0,0-1.71-3.55,6.17-11a7.37,7.37,0,0,0-.53-5.39c-1.45-2.5-4.47-3.81-4.86-6.17s0-3,1.05-3.55a7.18,7.18,0,0,1,3.45-1.32c1.19,0,2.54.58,3.9,2.51v3.28a6.75,6.75,0,0,0,4.47,3.68,7.23,7.23,0,0,0,1.69.21,5.26,5.26,0,0,0,3.43-1.13,2.43,2.43,0,0,1-.33,0c-1.16,0-5.07-.56-6.63-7.9a7.36,7.36,0,0,0-6.79-3.8,11.18,11.18,0,0,0-1.62.12s-5.91.53-6,8.54a14.77,14.77,0,0,0,5.25,7s1.31,3-2.1,5l-4.2.39s-7.09-4.6-7.22-7c0,0-3.28-9.19-.26-13.53,0,0-.39,10.11,3.42,12.87,0,0-.92-5.25,2.36-8.14a15.62,15.62,0,0,0,4.47-12.61s-0.13-10.25-9.33-13.4a32.76,32.76,0,0,0-9.16-1.46h0Zm-5.87,48a1.06,1.06,0,0,0-.41.18,2,2,0,0,0,.41-0.18h0Z" transform="translate(-1 -1)"/><path class="cls-3" d="M111,252.4l-5.91,12H90l3-5.65,6.44,0.66,1.05-3.55s-7.75-4.73-6.17-10.77,4.07-7.88,5-8.27S111,239.27,111,247.41c0,0-4.73,2.72-4.2,3.13l-0.13,1.86H111" transform="translate(-1 -1)"/><path class="cls-2" d="M21.36,39L29.7,49.65,31,50.29A13.87,13.87,0,0,0,29.83,55H27.58l-5-11.16-1.92-1.18-1.2.06L18.34,39h3m1-2h-6.7L18,44.74l2.76-.13L26.28,57H31.8c-0.26-5.91,2.89-8.54,2.89-8.54H31.27L22.34,37h0Z" transform="translate(-1 -1)"/><path class="cls-2" d="M46.27,24.13a31,31,0,0,1,8.52,1.35c7.71,2.64,8,11.18,8,11.53v0.13A13.57,13.57,0,0,1,59,48.1a8.56,8.56,0,0,0-2.07,2.76,30.52,30.52,0,0,1-.39-5.91l-3.64-1.22c-3.34,4.8-.63,13.44,0,15.14,0.52,2.87,5.24,6.32,8.09,8.17l1.27,0.31,4.2-.39h0c-3.4,4.59-3.05,7.43-2.7,8.51,1.1,6.75,5,9.63,8,10.58L69.65,98H60.17L61,96l4.54,0.59,2.26-2V92l-0.9-1.67c-10.33-6.83-10.44-7.2-11-9a21.6,21.6,0,0,0-2.19-5.16c-2.76-4.9-5.84-7-8.34-7.85a7.58,7.58,0,0,0,1.21-5.13l-3.82-.39a4.83,4.83,0,0,1-4.75,3H37.78L25.66,62.77l-2.29,1-0.55,1.1-5.31-1.2,1.21-2.42,16-.37,1.88-2.53c0-.05-1.41-5.44,4.4-9.83,7.59-5.73,7.52-11.1,7.49-11.69l-3.93-.4a5.92,5.92,0,0,1-2.48,3.13,3.37,3.37,0,0,0-.16-1.92l-0.1-.21L41,36a3.28,3.28,0,0,0-3-1.68,7.07,7.07,0,0,0-2.93.78,6.72,6.72,0,0,1-1.82.27,4.31,4.31,0,0,1-.86-0.08l-0.95-1.44c2-1,5.63-2.71,9-4.25,0.3,0,.6,0,0.9,0a10.23,10.23,0,0,1,5.07,1.32L49.12,28a9.56,9.56,0,0,0-6.66-3.45,16.3,16.3,0,0,1,3.81-.41m30.6,28.52q0.14,0.3.29,0.58a4.76,4.76,0,0,1-.29-0.43V52.66M46.27,22.13a15.24,15.24,0,0,0-7,1.46,5.33,5.33,0,0,0-2.76,3.55,15.32,15.32,0,0,1,4.42-.68,8.13,8.13,0,0,1,6.61,2.78,12,12,0,0,0-6.18-1.66,12.28,12.28,0,0,0-1.44.08s-11.16,5.12-11.3,5.52L31.14,37a4.89,4.89,0,0,0,2.16.41A8.81,8.81,0,0,0,35.87,37,5.47,5.47,0,0,1,38,36.35a1.3,1.3,0,0,1,1.24.64l0.79,1.44a1.52,1.52,0,0,1-1.05,2l-3.68-.79-2.89,1.71,2.23,4.47s-0.92-2.23,4.86-3.15a8.28,8.28,0,0,0,7-5.65s0.26,4.73-6.7,10-5.12,12-5.12,12l-17.21.39L14.59,65.1l9.32,2.1,1.25-2.5,12.28,3.15a5.53,5.53,0,0,0,.62,0,6.83,6.83,0,0,0,6.61-4.3s0.66,3.61-3.55,6.11c-0.3.18-.54,0.31-0.72,0.4a6.38,6.38,0,0,1,1.91-.27c2.39,0,6.24,1.18,9.72,7.36,4.5,8-1.71,4.6,13.79,14.84v2.63l-6-.79L57.15,100H71.33l2.76-15.63s-7,0-8.41-9.46c0,0-1.71-3.55,6.17-11a7.37,7.37,0,0,0-.53-5.39c-1.45-2.5-4.47-3.81-4.86-6.17s0-3,1.05-3.55A7.18,7.18,0,0,1,71,47.49c1.19,0,2.54.58,3.9,2.51v3.28A6.75,6.75,0,0,0,79.34,57a7.23,7.23,0,0,0,1.69.21A5.26,5.26,0,0,0,84.46,56a2.43,2.43,0,0,1-.33,0c-1.16,0-5.07-.56-6.63-7.9a7.36,7.36,0,0,0-6.79-3.8,11.18,11.18,0,0,0-1.62.12s-5.91.53-6,8.54a14.77,14.77,0,0,0,5.25,7s1.31,3-2.1,5l-4.2.39s-7.09-4.6-7.22-7c0,0-3.28-9.19-.26-13.53,0,0-.39,10.11,3.42,12.87,0,0-.92-5.25,2.36-8.14A15.62,15.62,0,0,0,64.76,37s-0.13-10.25-9.33-13.4a32.76,32.76,0,0,0-9.16-1.46h0Zm-5.87,48a1.06,1.06,0,0,0-.41.18,2,2,0,0,0,.41-0.18h0Z" transform="translate(-1 -1)"/><path class="cls-3" d="M51.37,88.08l-5.91,12H30.35l3-5.65L39.81,95l1.05-3.55s-7.75-4.73-6.17-10.77,4.07-7.88,5-8.27,11.69,2.49,11.69,10.64c0,0-4.73,2.72-4.2,3.13L47,88.08h4.33" transform="translate(-1 -1)"/></svg>