<svg xmlns="http://www.w3.org/2000/svg" width="1920" height="1080"><path d="M268,-159L761,-145L1216,-168Z" fill="#bbe3ca" stroke="#bbe3ca" stroke-width="1.51"/><path d="M1109,1234L872,1242L1718,1233Z" fill="#1e578e" stroke="#1e578e" stroke-width="1.51"/><path d="M1489,1219L1109,1234L1718,1233Z" fill="#1a4687" stroke="#1a4687" stroke-width="1.51"/><path d="M1845,1198L1718,1233L2067,1212Z" fill="#182977" stroke="#182977" stroke-width="1.51"/><path d="M1918,1173L1845,1198L2067,1212Z" fill="#162773" stroke="#162773" stroke-width="1.51"/><path d="M2018,729L1968,780L2077,891Z" fill="#1f4e8f" stroke="#1f4e8f" stroke-width="1.51"/><path d="M2065,553L2025,680L2077,891Z" fill="#1f5891" stroke="#1f5891" stroke-width="1.51"/><path d="M2025,680L2018,729L2077,891Z" fill="#1e5190" stroke="#1e5190" stroke-width="1.51"/><path d="M1910,1005L2065,1110L2092,983Z" fill="#1c3182" stroke="#1c3182" stroke-width="1.51"/><path d="M2065,1110L2067,1212L2092,983Z" fill="#172875" stroke="#172875" stroke-width="1.51"/><path d="M2055,78L1997,181L2092,241Z" fill="#767f8e" stroke="#767f8e" stroke-width="1.51"/><path d="M1748,-154L1796,-134L2093,-87Z" fill="#9890ae" stroke="#9890ae" stroke-width="1.51"/><path d="M1938,-71L2047,-56L2093,-87Z" fill="#8c8797" stroke="#8c8797" stroke-width="1.51"/><path d="M1796,-134L1938,-71L2093,-87Z" fill="#928ca3" stroke="#928ca3" stroke-width="1.51"/><path d="M2055,78L2092,241L2093,-87Z" fill="#7e818a" stroke="#7e818a" stroke-width="1.51"/><path d="M2047,-56L2055,78L2093,-87Z" fill="#87848e" stroke="#87848e" stroke-width="1.51"/><path d="M1968,442L2082,444L2101,368Z" fill="#486f91" stroke="#486f91" stroke-width="1.51"/><path d="M1935,313L1968,442L2101,368Z" fill="#517496" stroke="#517496" stroke-width="1.51"/><path d="M2082,444L2065,553L2101,368Z" fill="#406b8e" stroke="#406b8e" stroke-width="1.51"/><path d="M2065,553L2077,891L2101,368Z" fill="#2a6190" stroke="#2a6190" stroke-width="1.51"/><path d="M2077,891L2092,983L2101,368Z" fill="#1c528b" stroke="#1c528b" stroke-width="1.51"/><path d="M2092,241L1935,313L2101,368Z" fill="#5c7691" stroke="#5c7691" stroke-width="1.51"/><path d="M2093,-87L2092,241L2101,368Z" fill="#727d89" stroke="#727d89" stroke-width="1.51"/><path d="M1910,1005L1976,1130L2065,1110Z" fill="#1d2d82" stroke="#1d2d82" stroke-width="1.51"/><path d="M1968,442L2065,553L2082,444Z" fill="#3e6d94" stroke="#3e6d94" stroke-width="1.51"/><path d="M2077,891L1910,1005L2092,983Z" fill="#1c3a85" stroke="#1c3a85" stroke-width="1.51"/><path d="M1997,181L1935,313L2092,241Z" fill="#6c7c94" stroke="#6c7c94" stroke-width="1.51"/><path d="M2065,1110L1976,1130L2067,1212Z" fill="#152671" stroke="#152671" stroke-width="1.51"/><path d="M2047,-56L1935,-28L2055,78Z" fill="#8b8792" stroke="#8b8792" stroke-width="1.51"/><path d="M1958,544L2025,680L2065,553Z" fill="#2e6597" stroke="#2e6597" stroke-width="1.51"/><path d="M1968,442L1958,544L2065,553Z" fill="#3a6c99" stroke="#3a6c99" stroke-width="1.51"/><path d="M1902,850L1910,1005L2077,891Z" fill="#1e418e" stroke="#1e418e" stroke-width="1.51"/><path d="M1968,780L1902,850L2077,891Z" fill="#204a91" stroke="#204a91" stroke-width="1.51"/><path d="M1957,126L1997,181L2055,78Z" fill="#7e8393" stroke="#7e8393" stroke-width="1.51"/><path d="M1976,1130L1918,1173L2067,1212Z" fill="#162772" stroke="#162772" stroke-width="1.51"/><path d="M1935,-28L1957,126L2055,78Z" fill="#878695" stroke="#878695" stroke-width="1.51"/><path d="M1958,544L1922,675L2025,680Z" fill="#2e649c" stroke="#2e649c" stroke-width="1.51"/><path d="M1938,-71L1935,-28L2047,-56Z" fill="#8f899b" stroke="#8f899b" stroke-width="1.51"/><path d="M1620,1213L1489,1219L1718,1233Z" fill="#1a3a82" stroke="#1a3a82" stroke-width="1.51"/><path d="M1922,675L2018,729L2025,680Z" fill="#255d99" stroke="#255d99" stroke-width="1.51"/><path d="M1922,675L1968,780L2018,729Z" fill="#235a9a" stroke="#235a9a" stroke-width="1.51"/><path d="M1935,-28L1837,28L1957,126Z" fill="#8d8a9d" stroke="#8d8a9d" stroke-width="1.51"/><path d="M1957,126L1854,204L1997,181Z" fill="#7e849b" stroke="#7e849b" stroke-width="1.51"/><path d="M1854,204L1935,313L1997,181Z" fill="#73819c" stroke="#73819c" stroke-width="1.51"/><path d="M1902,850L1837,958L1910,1005Z" fill="#234296" stroke="#234296" stroke-width="1.51"/><path d="M1910,1005L1812,1050L1918,1173Z" fill="#22328e" stroke="#22328e" stroke-width="1.51"/><path d="M1836,638L1922,675L1958,544Z" fill="#3268a2" stroke="#3268a2" stroke-width="1.51"/><path d="M1871,473L1958,544L1968,442Z" fill="#43719f" stroke="#43719f" stroke-width="1.51"/><path d="M1935,313L1871,473L1968,442Z" fill="#50769f" stroke="#50769f" stroke-width="1.51"/><path d="M1910,1005L1918,1173L1976,1130Z" fill="#1e2d84" stroke="#1e2d84" stroke-width="1.51"/><path d="M1809,325L1871,473L1935,313Z" fill="#5a7ba4" stroke="#5a7ba4" stroke-width="1.51"/><path d="M1922,675L1813,741L1968,780Z" fill="#285da1" stroke="#285da1" stroke-width="1.51"/><path d="M1813,741L1902,850L1968,780Z" fill="#26559d" stroke="#26559d" stroke-width="1.51"/><path d="M1859,860L1837,958L1902,850Z" fill="#24499a" stroke="#24499a" stroke-width="1.51"/><path d="M1871,473L1811,504L1958,544Z" fill="#4273a5" stroke="#4273a5" stroke-width="1.51"/><path d="M1811,504L1836,638L1958,544Z" fill="#3a6fa8" stroke="#3a6fa8" stroke-width="1.51"/><path d="M1837,28L1854,204L1957,126Z" fill="#8789a0" stroke="#8789a0" stroke-width="1.51"/><path d="M1837,28L1800,50L1854,204Z" fill="#8d8ca6" stroke="#8d8ca6" stroke-width="1.51"/><path d="M1812,1050L1845,1198L1918,1173Z" fill="#1f2e85" stroke="#1f2e85" stroke-width="1.51"/><path d="M1854,204L1809,325L1935,313Z" fill="#6d81a3" stroke="#6d81a3" stroke-width="1.51"/><path d="M1837,28L1935,-28L1938,-71Z" fill="#928da0" stroke="#928da0" stroke-width="1.51"/><path d="M1796,-134L1837,28L1938,-71Z" fill="#978fa9" stroke="#978fa9" stroke-width="1.51"/><path d="M1813,741L1859,860L1902,850Z" fill="#2753a0" stroke="#2753a0" stroke-width="1.51"/><path d="M1836,638L1813,741L1922,675Z" fill="#2e64a7" stroke="#2e64a7" stroke-width="1.51"/><path d="M1800,50L1754,101L1854,204Z" fill="#8b8ea7" stroke="#8b8ea7" stroke-width="1.51"/><path d="M1837,958L1812,1050L1910,1005Z" fill="#243c95" stroke="#243c95" stroke-width="1.51"/><path d="M761,-145L1008,-130L1216,-168Z" fill="#abd7cc" stroke="#abd7cc" stroke-width="1.51"/><path d="M1776,221L1773,309L1809,325Z" fill="#6f86a9" stroke="#6f86a9" stroke-width="1.51"/><path d="M1796,-134L1738,-17L1837,28Z" fill="#9993ac" stroke="#9993ac" stroke-width="1.51"/><path d="M1812,1050L1713,1104L1845,1198Z" fill="#22348e" stroke="#22348e" stroke-width="1.51"/><path d="M1754,101L1776,221L1854,204Z" fill="#848da8" stroke="#848da8" stroke-width="1.51"/><path d="M1776,221L1809,325L1854,204Z" fill="#7686a8" stroke="#7686a8" stroke-width="1.51"/><path d="M1809,325L1811,504L1871,473Z" fill="#527aaa" stroke="#527aaa" stroke-width="1.51"/><path d="M1809,325L1681,477L1811,504Z" fill="#517eac" stroke="#517eac" stroke-width="1.51"/><path d="M1811,504L1727,522L1836,638Z" fill="#3d75ad" stroke="#3d75ad" stroke-width="1.51"/><path d="M1813,741L1687,838L1859,860Z" fill="#2958a5" stroke="#2958a5" stroke-width="1.51"/><path d="M1687,838L1720,930L1859,860Z" fill="#2652a2" stroke="#2652a2" stroke-width="1.51"/><path d="M1720,930L1837,958L1859,860Z" fill="#26499e" stroke="#26499e" stroke-width="1.51"/><path d="M1773,309L1681,477L1809,325Z" fill="#5c83ab" stroke="#5c83ab" stroke-width="1.51"/><path d="M1696,678L1813,741L1836,638Z" fill="#2f69ac" stroke="#2f69ac" stroke-width="1.51"/><path d="M1738,-17L1800,50L1837,28Z" fill="#9692a7" stroke="#9692a7" stroke-width="1.51"/><path d="M1713,1104L1718,1233L1845,1198Z" fill="#1d3285" stroke="#1d3285" stroke-width="1.51"/><path d="M1727,522L1696,678L1836,638Z" fill="#3772ae" stroke="#3772ae" stroke-width="1.51"/><path d="M1720,930L1812,1050L1837,958Z" fill="#26429b" stroke="#26429b" stroke-width="1.51"/><path d="M1748,-154L1738,-17L1796,-134Z" fill="#9b97b3" stroke="#9b97b3" stroke-width="1.51"/><path d="M1681,477L1727,522L1811,504Z" fill="#457caf" stroke="#457caf" stroke-width="1.51"/><path d="M1720,930L1713,1104L1812,1050Z" fill="#264099" stroke="#264099" stroke-width="1.51"/><path d="M1686,743L1687,838L1813,741Z" fill="#2961aa" stroke="#2961aa" stroke-width="1.51"/><path d="M1696,678L1686,743L1813,741Z" fill="#2a69ae" stroke="#2a69ae" stroke-width="1.51"/><path d="M1216,-168L1380,-112L1609,-160Z" fill="#a0b7c4" stroke="#a0b7c4" stroke-width="1.51"/><path d="M1631,442L1681,477L1773,309Z" fill="#5585ae" stroke="#5585ae" stroke-width="1.51"/><path d="M1629,318L1631,442L1773,309Z" fill="#5d8aae" stroke="#5d8aae" stroke-width="1.51"/><path d="M1738,-17L1754,101L1800,50Z" fill="#9393a8" stroke="#9393a8" stroke-width="1.51"/><path d="M1641,957L1713,1104L1720,930Z" fill="#26489d" stroke="#26489d" stroke-width="1.51"/><path d="M1640,565L1696,678L1727,522Z" fill="#3879b1" stroke="#3879b1" stroke-width="1.51"/><path d="M1738,-17L1654,17L1754,101Z" fill="#9597aa" stroke="#9597aa" stroke-width="1.51"/><path d="M1654,249L1773,309L1776,221Z" fill="#748caa" stroke="#748caa" stroke-width="1.51"/><path d="M1754,101L1654,249L1776,221Z" fill="#8291aa" stroke="#8291aa" stroke-width="1.51"/><path d="M1654,249L1629,318L1773,309Z" fill="#6d8dad" stroke="#6d8dad" stroke-width="1.51"/><path d="M1713,1104L1647,1115L1718,1233Z" fill="#20398b" stroke="#20398b" stroke-width="1.51"/><path d="M1609,-160L1654,17L1738,-17Z" fill="#9a9db1" stroke="#9a9db1" stroke-width="1.51"/><path d="M1609,-160L1738,-17L1748,-154Z" fill="#9c9cb6" stroke="#9c9cb6" stroke-width="1.51"/><path d="M1654,17L1597,77L1754,101Z" fill="#919aab" stroke="#919aab" stroke-width="1.51"/><path d="M1597,77L1654,249L1754,101Z" fill="#8997ac" stroke="#8997ac" stroke-width="1.51"/><path d="M1641,957L1647,1115L1713,1104Z" fill="#26429b" stroke="#26429b" stroke-width="1.51"/><path d="M1647,1115L1620,1213L1718,1233Z" fill="#1d3986" stroke="#1d3986" stroke-width="1.51"/><path d="M1687,838L1641,957L1720,930Z" fill="#2552a3" stroke="#2552a3" stroke-width="1.51"/><path d="M1681,477L1640,565L1727,522Z" fill="#407fb1" stroke="#407fb1" stroke-width="1.51"/><path d="M1640,565L1595,604L1696,678Z" fill="#337ab2" stroke="#337ab2" stroke-width="1.51"/><path d="M268,-159L644,-129L761,-145Z" fill="#ceebc5" stroke="#ceebc5" stroke-width="1.51"/><path d="M1577,911L1641,957L1687,838Z" fill="#2457a4" stroke="#2457a4" stroke-width="1.51"/><path d="M1686,743L1604,710L1687,838Z" fill="#2768ad" stroke="#2768ad" stroke-width="1.51"/><path d="M1595,604L1604,710L1696,678Z" fill="#2e75b1" stroke="#2e75b1" stroke-width="1.51"/><path d="M1604,710L1686,743L1696,678Z" fill="#296fb0" stroke="#296fb0" stroke-width="1.51"/><path d="M1641,957L1517,993L1647,1115Z" fill="#264b9f" stroke="#264b9f" stroke-width="1.51"/><path d="M1609,-160L1515,-4L1654,17Z" fill="#9aa3b3" stroke="#9aa3b3" stroke-width="1.51"/><path d="M1631,442L1640,565L1681,477Z" fill="#4583b2" stroke="#4583b2" stroke-width="1.51"/><path d="M1604,710L1577,911L1687,838Z" fill="#2663aa" stroke="#2663aa" stroke-width="1.51"/><path d="M1597,77L1504,242L1654,249Z" fill="#829caf" stroke="#829caf" stroke-width="1.51"/><path d="M1377,1176L1109,1234L1489,1219Z" fill="#1e5190" stroke="#1e5190" stroke-width="1.51"/><path d="M1470,793L1577,911L1604,710Z" fill="#246aae" stroke="#246aae" stroke-width="1.51"/><path d="M1380,-112L1494,-97L1609,-160Z" fill="#9eadbe" stroke="#9eadbe" stroke-width="1.51"/><path d="M1494,-97L1515,-4L1609,-160Z" fill="#9ba9b9" stroke="#9ba9b9" stroke-width="1.51"/><path d="M1629,318L1519,344L1631,442Z" fill="#5a8fb1" stroke="#5a8fb1" stroke-width="1.51"/><path d="M1631,442L1517,525L1640,565Z" fill="#4087b4" stroke="#4087b4" stroke-width="1.51"/><path d="M1504,242L1629,318L1654,249Z" fill="#7196b0" stroke="#7196b0" stroke-width="1.51"/><path d="M1515,-4L1597,77L1654,17Z" fill="#95a2ad" stroke="#95a2ad" stroke-width="1.51"/><path d="M1468,1129L1620,1213L1647,1115Z" fill="#20418f" stroke="#20418f" stroke-width="1.51"/><path d="M1517,993L1468,1129L1647,1115Z" fill="#26499d" stroke="#26499d" stroke-width="1.51"/><path d="M1471,109L1504,242L1597,77Z" fill="#89a3b0" stroke="#89a3b0" stroke-width="1.51"/><path d="M1517,525L1595,604L1640,565Z" fill="#3783b5" stroke="#3783b5" stroke-width="1.51"/><path d="M1577,911L1517,993L1641,957Z" fill="#2555a4" stroke="#2555a4" stroke-width="1.51"/><path d="M1468,1129L1489,1219L1620,1213Z" fill="#1c428b" stroke="#1c428b" stroke-width="1.51"/><path d="M1504,242L1519,344L1629,318Z" fill="#6a97b1" stroke="#6a97b1" stroke-width="1.51"/><path d="M1519,344L1499,448L1631,442Z" fill="#538fb3" stroke="#538fb3" stroke-width="1.51"/><path d="M1499,448L1517,525L1631,442Z" fill="#478cb5" stroke="#478cb5" stroke-width="1.51"/><path d="M1470,793L1513,915L1577,911Z" fill="#2363aa" stroke="#2363aa" stroke-width="1.51"/><path d="M1595,604L1475,635L1604,710Z" fill="#2d7cb5" stroke="#2d7cb5" stroke-width="1.51"/><path d="M761,-145L843,-130L1008,-130Z" fill="#b2ddc9" stroke="#b2ddc9" stroke-width="1.51"/><path d="M1475,635L1442,689L1604,710Z" fill="#287eb6" stroke="#287eb6" stroke-width="1.51"/><path d="M1442,689L1470,793L1604,710Z" fill="#2379b5" stroke="#2379b5" stroke-width="1.51"/><path d="M1513,915L1517,993L1577,911Z" fill="#2459a6" stroke="#2459a6" stroke-width="1.51"/><path d="M1515,-4L1471,109L1597,77Z" fill="#92a6b0" stroke="#92a6b0" stroke-width="1.51"/><path d="M1517,525L1475,635L1595,604Z" fill="#3385b6" stroke="#3385b6" stroke-width="1.51"/><path d="M1471,109L1440,217L1504,242Z" fill="#83a6b2" stroke="#83a6b2" stroke-width="1.51"/><path d="M1470,793L1424,838L1513,915Z" fill="#236baf" stroke="#236baf" stroke-width="1.51"/><path d="M1424,838L1442,931L1513,915Z" fill="#2365ab" stroke="#2365ab" stroke-width="1.51"/><path d="M1427,82L1471,109L1515,-4Z" fill="#93abb2" stroke="#93abb2" stroke-width="1.51"/><path d="M1494,-97L1382,-19L1515,-4Z" fill="#9bafb7" stroke="#9bafb7" stroke-width="1.51"/><path d="M1399,1065L1468,1129L1517,993Z" fill="#2751a2" stroke="#2751a2" stroke-width="1.51"/><path d="M1513,915L1442,931L1517,993Z" fill="#255ca8" stroke="#255ca8" stroke-width="1.51"/><path d="M1377,573L1475,635L1517,525Z" fill="#338cb9" stroke="#338cb9" stroke-width="1.51"/><path d="M1499,448L1376,463L1517,525Z" fill="#4594b8" stroke="#4594b8" stroke-width="1.51"/><path d="M1376,463L1499,448L1519,344Z" fill="#5197b7" stroke="#5197b7" stroke-width="1.51"/><path d="M1422,276L1376,463L1519,344Z" fill="#5b9db6" stroke="#5b9db6" stroke-width="1.51"/><path d="M1504,242L1422,276L1519,344Z" fill="#6e9eb4" stroke="#6e9eb4" stroke-width="1.51"/><path d="M1382,-19L1427,82L1515,-4Z" fill="#98b0b3" stroke="#98b0b3" stroke-width="1.51"/><path d="M1442,931L1399,1065L1517,993Z" fill="#265aa6" stroke="#265aa6" stroke-width="1.51"/><path d="M1376,463L1377,573L1517,525Z" fill="#3b94bb" stroke="#3b94bb" stroke-width="1.51"/><path d="M1331,426L1376,463L1422,276Z" fill="#56a0b9" stroke="#56a0b9" stroke-width="1.51"/><path d="M1440,217L1422,276L1504,242Z" fill="#77a3b4" stroke="#77a3b4" stroke-width="1.51"/><path d="M1337,1161L1109,1234L1377,1176Z" fill="#215795" stroke="#215795" stroke-width="1.51"/><path d="M1468,1129L1377,1176L1489,1219Z" fill="#1f4a91" stroke="#1f4a91" stroke-width="1.51"/><path d="M1380,-112L1382,-19L1494,-97Z" fill="#9db4bc" stroke="#9db4bc" stroke-width="1.51"/><path d="M1442,689L1393,714L1470,793Z" fill="#227eb8" stroke="#227eb8" stroke-width="1.51"/><path d="M1427,82L1440,217L1471,109Z" fill="#8aabb4" stroke="#8aabb4" stroke-width="1.51"/><path d="M1377,573L1442,689L1475,635Z" fill="#2d89ba" stroke="#2d89ba" stroke-width="1.51"/><path d="M1427,82L1314,161L1440,217Z" fill="#89afb6" stroke="#89afb6" stroke-width="1.51"/><path d="M1393,714L1424,838L1470,793Z" fill="#2378b5" stroke="#2378b5" stroke-width="1.51"/><path d="M1399,1065L1377,1176L1468,1129Z" fill="#24509b" stroke="#24509b" stroke-width="1.51"/><path d="M1320,278L1331,426L1422,276Z" fill="#64a7b9" stroke="#64a7b9" stroke-width="1.51"/><path d="M1393,714L1326,744L1424,838Z" fill="#227eb8" stroke="#227eb8" stroke-width="1.51"/><path d="M1309,1023L1399,1065L1442,931Z" fill="#285fa9" stroke="#285fa9" stroke-width="1.51"/><path d="M1424,838L1308,865L1442,931Z" fill="#246db0" stroke="#246db0" stroke-width="1.51"/><path d="M1308,865L1309,1023L1442,931Z" fill="#2669ad" stroke="#2669ad" stroke-width="1.51"/><path d="M1377,573L1393,714L1442,689Z" fill="#2a89ba" stroke="#2a89ba" stroke-width="1.51"/><path d="M1382,-19L1320,65L1427,82Z" fill="#96b5b6" stroke="#96b5b6" stroke-width="1.51"/><path d="M1320,278L1422,276L1440,217Z" fill="#75a8b7" stroke="#75a8b7" stroke-width="1.51"/><path d="M1314,161L1320,278L1440,217Z" fill="#7eaeb8" stroke="#7eaeb8" stroke-width="1.51"/><path d="M1377,573L1336,574L1393,714Z" fill="#2d90bc" stroke="#2d90bc" stroke-width="1.51"/><path d="M1337,1161L1377,1176L1399,1065Z" fill="#25539b" stroke="#25539b" stroke-width="1.51"/><path d="M1326,744L1308,865L1424,838Z" fill="#2379b5" stroke="#2379b5" stroke-width="1.51"/><path d="M1320,65L1314,161L1427,82Z" fill="#8fb5b7" stroke="#8fb5b7" stroke-width="1.51"/><path d="M314,1234L187,1244L477,1243Z" fill="#767e89" stroke="#767e89" stroke-width="1.51"/><path d="M1254,607L1326,744L1336,574Z" fill="#2a94bf" stroke="#2a94bf" stroke-width="1.51"/><path d="M1376,463L1336,574L1377,573Z" fill="#3799be" stroke="#3799be" stroke-width="1.51"/><path d="M1216,-168L1242,-104L1380,-112Z" fill="#a1c2c7" stroke="#a1c2c7" stroke-width="1.51"/><path d="M1380,-112L1305,-15L1382,-19Z" fill="#9db9bc" stroke="#9db9bc" stroke-width="1.51"/><path d="M1336,574L1326,744L1393,714Z" fill="#268cbc" stroke="#268cbc" stroke-width="1.51"/><path d="M1311,1077L1337,1161L1399,1065Z" fill="#2858a1" stroke="#2858a1" stroke-width="1.51"/><path d="M1309,1023L1311,1077L1399,1065Z" fill="#2a5da7" stroke="#2a5da7" stroke-width="1.51"/><path d="M1305,-15L1320,65L1382,-19Z" fill="#9bbab7" stroke="#9bbab7" stroke-width="1.51"/><path d="M1331,426L1336,574L1376,463Z" fill="#429dbd" stroke="#429dbd" stroke-width="1.51"/><path d="M1242,-104L1305,-15L1380,-112Z" fill="#9fbec1" stroke="#9fbec1" stroke-width="1.51"/><path d="M1331,426L1221,456L1336,574Z" fill="#42a3bf" stroke="#42a3bf" stroke-width="1.51"/><path d="M1308,865L1167,910L1309,1023Z" fill="#2572b2" stroke="#2572b2" stroke-width="1.51"/><path d="M1314,161L1216,238L1320,278Z" fill="#7db5bb" stroke="#7db5bb" stroke-width="1.51"/><path d="M1254,607L1207,645L1326,744Z" fill="#2595c0" stroke="#2595c0" stroke-width="1.51"/><path d="M1320,278L1158,357L1331,426Z" fill="#5dadbd" stroke="#5dadbd" stroke-width="1.51"/><path d="M1158,357L1221,456L1331,426Z" fill="#51acbf" stroke="#51acbf" stroke-width="1.51"/><path d="M1221,456L1254,607L1336,574Z" fill="#33a1c1" stroke="#33a1c1" stroke-width="1.51"/><path d="M1311,1077L1148,1156L1337,1161Z" fill="#265da0" stroke="#265da0" stroke-width="1.51"/><path d="M1148,1156L1109,1234L1337,1161Z" fill="#255d97" stroke="#255d97" stroke-width="1.51"/><path d="M1167,910L1164,999L1309,1023Z" fill="#2b70b0" stroke="#2b70b0" stroke-width="1.51"/><path d="M1133,723L1308,865L1326,744Z" fill="#2088bc" stroke="#2088bc" stroke-width="1.51"/><path d="M1216,238L1158,357L1320,278Z" fill="#6eb5bd" stroke="#6eb5bd" stroke-width="1.51"/><path d="M1180,93L1314,161L1320,65Z" fill="#90bcba" stroke="#90bcba" stroke-width="1.51"/><path d="M1221,456L1190,578L1254,607Z" fill="#33a4c2" stroke="#33a4c2" stroke-width="1.51"/><path d="M1207,645L1133,723L1326,744Z" fill="#2294c0" stroke="#2294c0" stroke-width="1.51"/><path d="M1133,723L1167,910L1308,865Z" fill="#2683b9" stroke="#2683b9" stroke-width="1.51"/><path d="M1305,-15L1180,93L1320,65Z" fill="#97bfba" stroke="#97bfba" stroke-width="1.51"/><path d="M1177,-29L1180,93L1305,-15Z" fill="#9cc4ba" stroke="#9cc4ba" stroke-width="1.51"/><path d="M1309,1023L1164,999L1311,1077Z" fill="#2b66ac" stroke="#2b66ac" stroke-width="1.51"/><path d="M1180,93L1216,238L1314,161Z" fill="#89bebb" stroke="#89bebb" stroke-width="1.51"/><path d="M1164,999L1144,1041L1311,1077Z" fill="#2e69ad" stroke="#2e69ad" stroke-width="1.51"/><path d="M1144,1041L1148,1156L1311,1077Z" fill="#2e64a8" stroke="#2e64a8" stroke-width="1.51"/><path d="M1242,-104L1177,-29L1305,-15Z" fill="#9fc4c0" stroke="#9fc4c0" stroke-width="1.51"/><path d="M1133,723L1099,745L1167,910Z" fill="#2a8ebc" stroke="#2a8ebc" stroke-width="1.51"/><path d="M1190,578L1207,645L1254,607Z" fill="#2e9ec2" stroke="#2e9ec2" stroke-width="1.51"/><path d="M1216,-168L1177,-29L1242,-104Z" fill="#a2c8c6" stroke="#a2c8c6" stroke-width="1.51"/><path d="M1099,745L1049,854L1167,910Z" fill="#2d89b9" stroke="#2d89b9" stroke-width="1.51"/><path d="M1177,-29L1098,29L1180,93Z" fill="#9cc8bb" stroke="#9cc8bb" stroke-width="1.51"/><path d="M1081,299L1158,357L1216,238Z" fill="#6fb9be" stroke="#6fb9be" stroke-width="1.51"/><path d="M1180,93L1057,243L1216,238Z" fill="#88c2bc" stroke="#88c2bc" stroke-width="1.51"/><path d="M1057,-80L1177,-29L1216,-168Z" fill="#a4cbc5" stroke="#a4cbc5" stroke-width="1.51"/><path d="M1069,444L1190,578L1221,456Z" fill="#44acc2" stroke="#44acc2" stroke-width="1.51"/><path d="M1158,357L1069,444L1221,456Z" fill="#53b1c0" stroke="#53b1c0" stroke-width="1.51"/><path d="M1063,96L1057,243L1180,93Z" fill="#90c7bc" stroke="#90c7bc" stroke-width="1.51"/><path d="M1057,243L1081,299L1216,238Z" fill="#79bfbd" stroke="#79bfbd" stroke-width="1.51"/><path d="M1008,-130L1057,-80L1216,-168Z" fill="#a7d0c9" stroke="#a7d0c9" stroke-width="1.51"/><path d="M958,1206L872,1242L1109,1234Z" fill="#2f6692" stroke="#2f6692" stroke-width="1.51"/><path d="M1040,576L1133,723L1190,578Z" fill="#32a2c2" stroke="#32a2c2" stroke-width="1.51"/><path d="M1069,444L1040,576L1190,578Z" fill="#3dadc3" stroke="#3dadc3" stroke-width="1.51"/><path d="M1190,578L1133,723L1207,645Z" fill="#2c9cc2" stroke="#2c9cc2" stroke-width="1.51"/><path d="M1040,576L1020,688L1133,723Z" fill="#32a2c2" stroke="#32a2c2" stroke-width="1.51"/><path d="M1087,978L1164,999L1167,910Z" fill="#2f76b2" stroke="#2f76b2" stroke-width="1.51"/><path d="M1098,29L1063,96L1180,93Z" fill="#99c9bb" stroke="#99c9bb" stroke-width="1.51"/><path d="M1057,-80L1098,29L1177,-29Z" fill="#a2ccbe" stroke="#a2ccbe" stroke-width="1.51"/><path d="M1144,1041L1034,1079L1148,1156Z" fill="#3469a8" stroke="#3469a8" stroke-width="1.51"/><path d="M1049,854L1087,978L1167,910Z" fill="#307eb4" stroke="#307eb4" stroke-width="1.51"/><path d="M1087,978L1144,1041L1164,999Z" fill="#3272af" stroke="#3272af" stroke-width="1.51"/><path d="M1081,299L1069,444L1158,357Z" fill="#5fb8bf" stroke="#5fb8bf" stroke-width="1.51"/><path d="M1034,1079L1109,1234L1148,1156Z" fill="#2f659d" stroke="#2f659d" stroke-width="1.51"/><path d="M1020,688L1099,745L1133,723Z" fill="#2b9bc1" stroke="#2b9bc1" stroke-width="1.51"/><path d="M1087,978L1034,1079L1144,1041Z" fill="#3671ae" stroke="#3671ae" stroke-width="1.51"/><path d="M1001,328L1069,444L1081,299Z" fill="#63bcbf" stroke="#63bcbf" stroke-width="1.51"/><path d="M1034,1079L958,1206L1109,1234Z" fill="#31679b" stroke="#31679b" stroke-width="1.51"/><path d="M956,1123L958,1206L1034,1079Z" fill="#376da2" stroke="#376da2" stroke-width="1.51"/><path d="M972,143L1057,243L1063,96Z" fill="#90cbbc" stroke="#90cbbc" stroke-width="1.51"/><path d="M1049,854L998,937L1087,978Z" fill="#3481b4" stroke="#3481b4" stroke-width="1.51"/><path d="M1057,-80L1003,-58L1098,29Z" fill="#a4d1c0" stroke="#a4d1c0" stroke-width="1.51"/><path d="M1020,688L1049,854L1099,745Z" fill="#2f97bf" stroke="#2f97bf" stroke-width="1.51"/><path d="M1003,-58L1063,96L1098,29Z" fill="#a1cfbb" stroke="#a1cfbb" stroke-width="1.51"/><path d="M1020,688L986,868L1049,854Z" fill="#3293bc" stroke="#3293bc" stroke-width="1.51"/><path d="M921,491L1040,576L1069,444Z" fill="#47b5c3" stroke="#47b5c3" stroke-width="1.51"/><path d="M998,937L1034,1079L1087,978Z" fill="#3878b0" stroke="#3878b0" stroke-width="1.51"/><path d="M917,720L986,868L1020,688Z" fill="#349cc0" stroke="#349cc0" stroke-width="1.51"/><path d="M1057,243L1001,328L1081,299Z" fill="#75c1be" stroke="#75c1be" stroke-width="1.51"/><path d="M986,868L998,937L1049,854Z" fill="#3487b7" stroke="#3487b7" stroke-width="1.51"/><path d="M972,143L941,182L1057,243Z" fill="#8dcdbd" stroke="#8dcdbd" stroke-width="1.51"/><path d="M1003,-58L972,143L1063,96Z" fill="#9dd0bc" stroke="#9dd0bc" stroke-width="1.51"/><path d="M1001,328L925,382L1069,444Z" fill="#5fbdc0" stroke="#5fbdc0" stroke-width="1.51"/><path d="M925,382L921,491L1069,444Z" fill="#56bbc2" stroke="#56bbc2" stroke-width="1.51"/><path d="M937,649L1020,688L1040,576Z" fill="#38a9c3" stroke="#38a9c3" stroke-width="1.51"/><path d="M941,182L1001,328L1057,243Z" fill="#7fc7be" stroke="#7fc7be" stroke-width="1.51"/><path d="M1008,-130L1003,-58L1057,-80Z" fill="#a8d4c5" stroke="#a8d4c5" stroke-width="1.51"/><path d="M826,16L972,143L1003,-58Z" fill="#a4d6bb" stroke="#a4d6bb" stroke-width="1.51"/><path d="M998,937L956,1123L1034,1079Z" fill="#3c75ae" stroke="#3c75ae" stroke-width="1.51"/><path d="M887,532L937,649L1040,576Z" fill="#3fb1c4" stroke="#3fb1c4" stroke-width="1.51"/><path d="M921,491L887,532L1040,576Z" fill="#44b7c4" stroke="#44b7c4" stroke-width="1.51"/><path d="M720,1184L477,1243L872,1242Z" fill="#4d718f" stroke="#4d718f" stroke-width="1.51"/><path d="M826,16L881,145L972,143Z" fill="#9fd5bb" stroke="#9fd5bb" stroke-width="1.51"/><path d="M844,1105L956,1123L998,937Z" fill="#4277ad" stroke="#4277ad" stroke-width="1.51"/><path d="M824,934L844,1105L998,937Z" fill="#4580b0" stroke="#4580b0" stroke-width="1.51"/><path d="M941,182L868,237L1001,328Z" fill="#83cbbd" stroke="#83cbbd" stroke-width="1.51"/><path d="M937,649L917,720L1020,688Z" fill="#36a7c3" stroke="#36a7c3" stroke-width="1.51"/><path d="M868,237L847,305L1001,328Z" fill="#7cc9bd" stroke="#7cc9bd" stroke-width="1.51"/><path d="M843,-130L1003,-58L1008,-130Z" fill="#abd9c8" stroke="#abd9c8" stroke-width="1.51"/><path d="M917,720L827,792L986,868Z" fill="#3e9abd" stroke="#3e9abd" stroke-width="1.51"/><path d="M847,305L925,382L1001,328Z" fill="#6ec5bf" stroke="#6ec5bf" stroke-width="1.51"/><path d="M843,-130L826,16L1003,-58Z" fill="#addac1" stroke="#addac1" stroke-width="1.51"/><path d="M986,868L835,895L998,937Z" fill="#3b89b6" stroke="#3b89b6" stroke-width="1.51"/><path d="M835,895L824,934L998,937Z" fill="#4389b4" stroke="#4389b4" stroke-width="1.51"/><path d="M827,792L835,895L986,868Z" fill="#4293b8" stroke="#4293b8" stroke-width="1.51"/><path d="M881,145L941,182L972,143Z" fill="#95d1bc" stroke="#95d1bc" stroke-width="1.51"/><path d="M866,388L921,491L925,382Z" fill="#60bfc0" stroke="#60bfc0" stroke-width="1.51"/><path d="M956,1123L844,1105L958,1206Z" fill="#3d6fa0" stroke="#3d6fa0" stroke-width="1.51"/><path d="M844,1105L872,1242L958,1206Z" fill="#3d6d98" stroke="#3d6d98" stroke-width="1.51"/><path d="M824,934L768,1001L844,1105Z" fill="#4f81ae" stroke="#4f81ae" stroke-width="1.51"/><path d="M847,305L866,388L925,382Z" fill="#6dc4bf" stroke="#6dc4bf" stroke-width="1.51"/><path d="M821,679L917,720L937,649Z" fill="#41a9c2" stroke="#41a9c2" stroke-width="1.51"/><path d="M887,532L821,679L937,649Z" fill="#47b0c2" stroke="#47b0c2" stroke-width="1.51"/><path d="M881,145L868,237L941,182Z" fill="#93d1bc" stroke="#93d1bc" stroke-width="1.51"/><path d="M866,388L887,532L921,491Z" fill="#59bdc2" stroke="#59bdc2" stroke-width="1.51"/><path d="M821,679L827,792L917,720Z" fill="#44a6c0" stroke="#44a6c0" stroke-width="1.51"/><path d="M765,-20L826,16L843,-130Z" fill="#b2debe" stroke="#b2debe" stroke-width="1.51"/><path d="M844,1105L758,1126L872,1242Z" fill="#47729c" stroke="#47729c" stroke-width="1.51"/><path d="M826,16L730,85L881,145Z" fill="#a7d9ba" stroke="#a7d9ba" stroke-width="1.51"/><path d="M785,259L868,237L881,145Z" fill="#92d1bb" stroke="#92d1bb" stroke-width="1.51"/><path d="M735,573L821,679L887,532Z" fill="#52b6c2" stroke="#52b6c2" stroke-width="1.51"/><path d="M866,388L746,410L887,532Z" fill="#64c1c0" stroke="#64c1c0" stroke-width="1.51"/><path d="M746,410L735,573L887,532Z" fill="#5ebfc1" stroke="#5ebfc1" stroke-width="1.51"/><path d="M758,1126L720,1184L872,1242Z" fill="#497197" stroke="#497197" stroke-width="1.51"/><path d="M730,85L785,259L881,145Z" fill="#9ed7ba" stroke="#9ed7ba" stroke-width="1.51"/><path d="M268,-159L553,-101L644,-129Z" fill="#d5eec3" stroke="#d5eec3" stroke-width="1.51"/><path d="M735,573L726,608L821,679Z" fill="#56b5c0" stroke="#56b5c0" stroke-width="1.51"/><path d="M785,259L847,305L868,237Z" fill="#87cebc" stroke="#87cebc" stroke-width="1.51"/><path d="M847,305L746,410L866,388Z" fill="#71c6be" stroke="#71c6be" stroke-width="1.51"/><path d="M821,679L694,755L827,792Z" fill="#4ea6be" stroke="#4ea6be" stroke-width="1.51"/><path d="M827,792L690,883L835,895Z" fill="#4f95b7" stroke="#4f95b7" stroke-width="1.51"/><path d="M761,-145L765,-20L843,-130Z" fill="#b6dfc4" stroke="#b6dfc4" stroke-width="1.51"/><path d="M768,1001L758,1126L844,1105Z" fill="#5279aa" stroke="#5279aa" stroke-width="1.51"/><path d="M785,259L704,318L847,305Z" fill="#85cdbc" stroke="#85cdbc" stroke-width="1.51"/><path d="M704,318L746,410L847,305Z" fill="#7bcabc" stroke="#7bcabc" stroke-width="1.51"/><path d="M690,883L824,934L835,895Z" fill="#4f8eb4" stroke="#4f8eb4" stroke-width="1.51"/><path d="M765,-20L730,85L826,16Z" fill="#b0ddb8" stroke="#b0ddb8" stroke-width="1.51"/><path d="M694,755L690,883L827,792Z" fill="#549eb9" stroke="#549eb9" stroke-width="1.51"/><path d="M690,883L768,1001L824,934Z" fill="#538bb1" stroke="#538bb1" stroke-width="1.51"/><path d="M726,608L694,755L821,679Z" fill="#55b0bf" stroke="#55b0bf" stroke-width="1.51"/><path d="M667,1159L477,1243L720,1184Z" fill="#597693" stroke="#597693" stroke-width="1.51"/><path d="M654,670L694,755L726,608Z" fill="#5bb2bf" stroke="#5bb2bf" stroke-width="1.51"/><path d="M623,512L735,573L746,410Z" fill="#68c3bf" stroke="#68c3bf" stroke-width="1.51"/><path d="M761,-145L644,-129L765,-20Z" fill="#bbe2c3" stroke="#bbe2c3" stroke-width="1.51"/><path d="M651,1061L758,1126L768,1001Z" fill="#597eab" stroke="#597eab" stroke-width="1.51"/><path d="M690,883L665,987L768,1001Z" fill="#588baf" stroke="#588baf" stroke-width="1.51"/><path d="M730,85L607,235L785,259Z" fill="#a0d8b8" stroke="#a0d8b8" stroke-width="1.51"/><path d="M607,235L704,318L785,259Z" fill="#91d3ba" stroke="#91d3ba" stroke-width="1.51"/><path d="M590,19L730,85L765,-20Z" fill="#b5e0b7" stroke="#b5e0b7" stroke-width="1.51"/><path d="M665,987L651,1061L768,1001Z" fill="#5b84ad" stroke="#5b84ad" stroke-width="1.51"/><path d="M644,-129L590,19L765,-20Z" fill="#bce3bc" stroke="#bce3bc" stroke-width="1.51"/><path d="M620,408L623,512L746,410Z" fill="#75c8bd" stroke="#75c8bd" stroke-width="1.51"/><path d="M651,1061L667,1159L758,1126Z" fill="#577aa2" stroke="#577aa2" stroke-width="1.51"/><path d="M667,1159L720,1184L758,1126Z" fill="#51759b" stroke="#51759b" stroke-width="1.51"/><path d="M590,80L607,235L730,85Z" fill="#aedeb7" stroke="#aedeb7" stroke-width="1.51"/><path d="M704,318L620,408L746,410Z" fill="#7bcbbc" stroke="#7bcbbc" stroke-width="1.51"/><path d="M590,19L590,80L730,85Z" fill="#b7e1b6" stroke="#b7e1b6" stroke-width="1.51"/><path d="M623,512L726,608L735,573Z" fill="#61bec0" stroke="#61bec0" stroke-width="1.51"/><path d="M613,883L690,883L694,755Z" fill="#5c9db6" stroke="#5c9db6" stroke-width="1.51"/><path d="M623,512L654,670L726,608Z" fill="#62bbbf" stroke="#62bbbf" stroke-width="1.51"/><path d="M268,-159L361,-98L553,-101Z" fill="#dff3c0" stroke="#dff3c0" stroke-width="1.51"/><path d="M613,883L665,987L690,883Z" fill="#5d91b2" stroke="#5d91b2" stroke-width="1.51"/><path d="M654,670L615,720L694,755Z" fill="#5eb0be" stroke="#5eb0be" stroke-width="1.51"/><path d="M615,720L613,883L694,755Z" fill="#60a6b9" stroke="#60a6b9" stroke-width="1.51"/><path d="M591,360L620,408L704,318Z" fill="#84cebb" stroke="#84cebb" stroke-width="1.51"/><path d="M607,235L591,360L704,318Z" fill="#91d3ba" stroke="#91d3ba" stroke-width="1.51"/><path d="M553,-101L590,19L644,-129Z" fill="#c6e8be" stroke="#c6e8be" stroke-width="1.51"/><path d="M623,512L539,612L654,670Z" fill="#6cbebf" stroke="#6cbebf" stroke-width="1.51"/><path d="M590,80L557,87L607,235Z" fill="#b6e1b6" stroke="#b6e1b6" stroke-width="1.51"/><path d="M566,875L613,883L615,720Z" fill="#67a1b6" stroke="#67a1b6" stroke-width="1.51"/><path d="M613,883L566,875L665,987Z" fill="#6494b1" stroke="#6494b1" stroke-width="1.51"/><path d="M480,981L651,1061L665,987Z" fill="#6789ab" stroke="#6789ab" stroke-width="1.51"/><path d="M651,1061L484,1068L667,1159Z" fill="#667fa5" stroke="#667fa5" stroke-width="1.51"/><path d="M484,1068L477,1243L667,1159Z" fill="#677c99" stroke="#677c99" stroke-width="1.51"/><path d="M518,748L566,875L615,720Z" fill="#6caab9" stroke="#6caab9" stroke-width="1.51"/><path d="M566,875L480,981L665,987Z" fill="#6b92af" stroke="#6b92af" stroke-width="1.51"/><path d="M480,981L484,1068L651,1061Z" fill="#7088aa" stroke="#7088aa" stroke-width="1.51"/><path d="M539,612L615,720L654,670Z" fill="#69b7be" stroke="#69b7be" stroke-width="1.51"/><path d="M557,87L473,195L607,235Z" fill="#b5e1b6" stroke="#b5e1b6" stroke-width="1.51"/><path d="M509,358L591,360L607,235Z" fill="#97d6b9" stroke="#97d6b9" stroke-width="1.51"/><path d="M539,612L518,748L615,720Z" fill="#6fb6bd" stroke="#6fb6bd" stroke-width="1.51"/><path d="M483,509L539,612L623,512Z" fill="#78c7be" stroke="#78c7be" stroke-width="1.51"/><path d="M620,408L493,439L623,512Z" fill="#80cbbd" stroke="#80cbbd" stroke-width="1.51"/><path d="M493,439L483,509L623,512Z" fill="#82cbbd" stroke="#82cbbd" stroke-width="1.51"/><path d="M591,360L493,439L620,408Z" fill="#88cfbb" stroke="#88cfbb" stroke-width="1.51"/><path d="M473,195L509,358L607,235Z" fill="#a7dcb8" stroke="#a7dcb8" stroke-width="1.51"/><path d="M553,-101L471,-17L590,19Z" fill="#cbeab9" stroke="#cbeab9" stroke-width="1.51"/><path d="M509,358L493,439L591,360Z" fill="#8fd2ba" stroke="#8fd2ba" stroke-width="1.51"/><path d="M557,87L590,80L590,19Z" fill="#bee4b6" stroke="#bee4b6" stroke-width="1.51"/><path d="M458,26L557,87L590,19Z" fill="#c5e7b5" stroke="#c5e7b5" stroke-width="1.51"/><path d="M471,-17L458,26L590,19Z" fill="#cceab4" stroke="#cceab4" stroke-width="1.51"/><path d="M473,195L443,337L509,358Z" fill="#a7dbb8" stroke="#a7dbb8" stroke-width="1.51"/><path d="M452,646L518,748L539,612Z" fill="#79bbbd" stroke="#79bbbd" stroke-width="1.51"/><path d="M518,748L379,828L566,875Z" fill="#77a8b6" stroke="#77a8b6" stroke-width="1.51"/><path d="M379,828L480,981L566,875Z" fill="#789db1" stroke="#789db1" stroke-width="1.51"/><path d="M458,26L473,195L557,87Z" fill="#c3e7b5" stroke="#c3e7b5" stroke-width="1.51"/><path d="M361,-98L471,-17L553,-101Z" fill="#d5eebc" stroke="#d5eebc" stroke-width="1.51"/><path d="M458,26L383,94L473,195Z" fill="#c9eab4" stroke="#c9eab4" stroke-width="1.51"/><path d="M384,1197L477,1243L484,1068Z" fill="#728097" stroke="#728097" stroke-width="1.51"/><path d="M483,509L452,646L539,612Z" fill="#7ec5be" stroke="#7ec5be" stroke-width="1.51"/><path d="M394,218L443,337L473,195Z" fill="#b5e1b6" stroke="#b5e1b6" stroke-width="1.51"/><path d="M480,981L436,1047L484,1068Z" fill="#798caa" stroke="#798caa" stroke-width="1.51"/><path d="M443,337L493,439L509,358Z" fill="#96d5ba" stroke="#96d5ba" stroke-width="1.51"/><path d="M452,646L367,728L518,748Z" fill="#7fbabc" stroke="#7fbabc" stroke-width="1.51"/><path d="M367,728L379,828L518,748Z" fill="#81b2b8" stroke="#81b2b8" stroke-width="1.51"/><path d="M128,-153L218,-150L268,-159Z" fill="#eef8c3" stroke="#eef8c3" stroke-width="1.51"/><path d="M379,828L373,983L480,981Z" fill="#809aaf" stroke="#809aaf" stroke-width="1.51"/><path d="M363,564L452,646L483,509Z" fill="#87c9bd" stroke="#87c9bd" stroke-width="1.51"/><path d="M436,1047L384,1197L484,1068Z" fill="#7a85a2" stroke="#7a85a2" stroke-width="1.51"/><path d="M373,406L483,509L493,439Z" fill="#92d1bb" stroke="#92d1bb" stroke-width="1.51"/><path d="M443,337L373,406L493,439Z" fill="#9bd6b9" stroke="#9bd6b9" stroke-width="1.51"/><path d="M383,94L394,218L473,195Z" fill="#c5e8b5" stroke="#c5e8b5" stroke-width="1.51"/><path d="M384,1197L314,1234L477,1243Z" fill="#727d8c" stroke="#727d8c" stroke-width="1.51"/><path d="M373,406L363,564L483,509Z" fill="#92d1bc" stroke="#92d1bc" stroke-width="1.51"/><path d="M373,983L436,1047L480,981Z" fill="#7e90ab" stroke="#7e90ab" stroke-width="1.51"/><path d="M361,-98L458,26L471,-17Z" fill="#d6efb7" stroke="#d6efb7" stroke-width="1.51"/><path d="M298,1093L384,1197L436,1047Z" fill="#8087a0" stroke="#8087a0" stroke-width="1.51"/><path d="M394,218L338,295L443,337Z" fill="#b3e0b6" stroke="#b3e0b6" stroke-width="1.51"/><path d="M278,-24L383,94L458,26Z" fill="#d8efb3" stroke="#d8efb3" stroke-width="1.51"/><path d="M361,-98L278,-24L458,26Z" fill="#ddf2b7" stroke="#ddf2b7" stroke-width="1.51"/><path d="M312,648L367,728L452,646Z" fill="#8ac0bc" stroke="#8ac0bc" stroke-width="1.51"/><path d="M363,564L312,648L452,646Z" fill="#8cc6bc" stroke="#8cc6bc" stroke-width="1.51"/><path d="M367,728L342,795L379,828Z" fill="#87b2b7" stroke="#87b2b7" stroke-width="1.51"/><path d="M338,295L373,406L443,337Z" fill="#a8dcb7" stroke="#a8dcb7" stroke-width="1.51"/><path d="M278,-24L286,66L383,94Z" fill="#daf0b3" stroke="#daf0b3" stroke-width="1.51"/><path d="M383,94L313,160L394,218Z" fill="#cbeab4" stroke="#cbeab4" stroke-width="1.51"/><path d="M373,983L298,1093L436,1047Z" fill="#858ea9" stroke="#858ea9" stroke-width="1.51"/><path d="M319,995L298,1093L373,983Z" fill="#8792a9" stroke="#8792a9" stroke-width="1.51"/><path d="M254,875L319,995L373,983Z" fill="#899bad" stroke="#899bad" stroke-width="1.51"/><path d="M338,295L280,384L373,406Z" fill="#a9dcb7" stroke="#a9dcb7" stroke-width="1.51"/><path d="M290,566L363,564L373,406Z" fill="#96d2bc" stroke="#96d2bc" stroke-width="1.51"/><path d="M280,384L290,566L373,406Z" fill="#9fd7ba" stroke="#9fd7ba" stroke-width="1.51"/><path d="M254,875L373,983L379,828Z" fill="#87a2b0" stroke="#87a2b0" stroke-width="1.51"/><path d="M313,160L338,295L394,218Z" fill="#c2e6b5" stroke="#c2e6b5" stroke-width="1.51"/><path d="M342,795L254,875L379,828Z" fill="#89abb4" stroke="#89abb4" stroke-width="1.51"/><path d="M286,66L313,160L383,94Z" fill="#d3eeb3" stroke="#d3eeb3" stroke-width="1.51"/><path d="M298,1093L314,1234L384,1197Z" fill="#7c8395" stroke="#7c8395" stroke-width="1.51"/><path d="M280,384L202,450L290,566Z" fill="#a2d7ba" stroke="#a2d7ba" stroke-width="1.51"/><path d="M290,566L312,648L363,564Z" fill="#92cbbc" stroke="#92cbbc" stroke-width="1.51"/><path d="M312,648L342,795L367,728Z" fill="#8abcbb" stroke="#8abcbb" stroke-width="1.51"/><path d="M312,648L191,780L342,795Z" fill="#8ebbba" stroke="#8ebbba" stroke-width="1.51"/><path d="M313,160L236,309L338,295Z" fill="#c0e6b5" stroke="#c0e6b5" stroke-width="1.51"/><path d="M268,-159L278,-24L361,-98Z" fill="#e5f5bd" stroke="#e5f5bd" stroke-width="1.51"/><path d="M236,309L280,384L338,295Z" fill="#b2e0b7" stroke="#b2e0b7" stroke-width="1.51"/><path d="M191,780L254,875L342,795Z" fill="#8eafb5" stroke="#8eafb5" stroke-width="1.51"/><path d="M298,1093L187,1244L314,1234Z" fill="#7f8392" stroke="#7f8392" stroke-width="1.51"/><path d="M268,-159L218,-150L278,-24Z" fill="#e9f7bf" stroke="#e9f7bf" stroke-width="1.51"/><path d="M202,450L190,529L290,566Z" fill="#9fd5bb" stroke="#9fd5bb" stroke-width="1.51"/><path d="M185,618L191,780L312,648Z" fill="#94c3bb" stroke="#94c3bb" stroke-width="1.51"/><path d="M158,173L236,309L313,160Z" fill="#cbeab4" stroke="#cbeab4" stroke-width="1.51"/><path d="M286,66L232,95L313,160Z" fill="#d6eeb3" stroke="#d6eeb3" stroke-width="1.51"/><path d="M254,875L200,1021L319,995Z" fill="#8d9bad" stroke="#8d9bad" stroke-width="1.51"/><path d="M204,1048L298,1093L319,995Z" fill="#8b90a8" stroke="#8b90a8" stroke-width="1.51"/><path d="M200,1021L204,1048L319,995Z" fill="#8e93a9" stroke="#8e93a9" stroke-width="1.51"/><path d="M218,-150L198,-36L278,-24Z" fill="#e8f6ba" stroke="#e8f6ba" stroke-width="1.51"/><path d="M204,1048L187,1244L298,1093Z" fill="#88899d" stroke="#88899d" stroke-width="1.51"/><path d="M290,566L185,618L312,648Z" fill="#96cabc" stroke="#96cabc" stroke-width="1.51"/><path d="M232,95L158,173L313,160Z" fill="#d6eeb3" stroke="#d6eeb3" stroke-width="1.51"/><path d="M191,780L201,858L254,875Z" fill="#91aeb3" stroke="#91aeb3" stroke-width="1.51"/><path d="M278,-24L198,-36L286,66Z" fill="#e3f4b2" stroke="#e3f4b2" stroke-width="1.51"/><path d="M198,-36L232,95L286,66Z" fill="#e0f2b3" stroke="#e0f2b3" stroke-width="1.51"/><path d="M190,529L185,618L290,566Z" fill="#9acfbb" stroke="#9acfbb" stroke-width="1.51"/><path d="M-174,-120L-48,-99L128,-153Z" fill="#f8fcc8" stroke="#f8fcc8" stroke-width="1.51"/><path d="M201,858L200,1021L254,875Z" fill="#90a1af" stroke="#90a1af" stroke-width="1.51"/><path d="M236,309L202,450L280,384Z" fill="#adddb8" stroke="#adddb8" stroke-width="1.51"/><path d="M97,1088L187,1244L204,1048Z" fill="#8d8a9d" stroke="#8d8a9d" stroke-width="1.51"/><path d="M97,1088L72,1165L187,1244Z" fill="#8b8896" stroke="#8b8896" stroke-width="1.51"/><path d="M185,618L106,764L191,780Z" fill="#98c1bb" stroke="#98c1bb" stroke-width="1.51"/><path d="M69,985L200,1021L201,858Z" fill="#949ead" stroke="#949ead" stroke-width="1.51"/><path d="M89,291L48,404L202,450Z" fill="#b6e0b7" stroke="#b6e0b7" stroke-width="1.51"/><path d="M128,-153L198,-36L218,-150Z" fill="#eef8be" stroke="#eef8be" stroke-width="1.51"/><path d="M198,-36L42,51L232,95Z" fill="#e6f5b2" stroke="#e6f5b2" stroke-width="1.51"/><path d="M89,291L202,450L236,309Z" fill="#b6e1b7" stroke="#b6e1b7" stroke-width="1.51"/><path d="M158,173L89,291L236,309Z" fill="#c8e9b5" stroke="#c8e9b5" stroke-width="1.51"/><path d="M42,51L158,173L232,95Z" fill="#dff2b3" stroke="#dff2b3" stroke-width="1.51"/><path d="M55,660L106,764L185,618Z" fill="#9dc7bb" stroke="#9dc7bb" stroke-width="1.51"/><path d="M68,-43L42,51L198,-36Z" fill="#edf9b2" stroke="#edf9b2" stroke-width="1.51"/><path d="M37,889L69,985L201,858Z" fill="#98a5af" stroke="#98a5af" stroke-width="1.51"/><path d="M108,517L185,618L190,529Z" fill="#a0d3bc" stroke="#a0d3bc" stroke-width="1.51"/><path d="M128,-153L68,-43L198,-36Z" fill="#eff9ba" stroke="#eff9ba" stroke-width="1.51"/><path d="M191,780L106,764L201,858Z" fill="#96b4b6" stroke="#96b4b6" stroke-width="1.51"/><path d="M108,517L190,529L202,450Z" fill="#a5d7bb" stroke="#a5d7bb" stroke-width="1.51"/><path d="M200,1021L97,1088L204,1048Z" fill="#9391a8" stroke="#9391a8" stroke-width="1.51"/><path d="M48,404L108,517L202,450Z" fill="#addcb9" stroke="#addcb9" stroke-width="1.51"/><path d="M106,764L37,889L201,858Z" fill="#98b0b3" stroke="#98b0b3" stroke-width="1.51"/><path d="M69,985L97,1088L200,1021Z" fill="#9595a8" stroke="#9595a8" stroke-width="1.51"/><path d="M108,517L55,660L185,618Z" fill="#a1d0bb" stroke="#a1d0bb" stroke-width="1.51"/><path d="M72,1165L-3,1246L187,1244Z" fill="#87858d" stroke="#87858d" stroke-width="1.51"/><path d="M42,51L52,198L158,173Z" fill="#dff3b3" stroke="#dff3b3" stroke-width="1.51"/><path d="M52,198L89,291L158,173Z" fill="#d3edb4" stroke="#d3edb4" stroke-width="1.51"/><path d="M42,51L2,86L52,198Z" fill="#e4f5b6" stroke="#e4f5b6" stroke-width="1.51"/><path d="M-48,-99L68,-43L128,-153Z" fill="#f4fbc0" stroke="#f4fbc0" stroke-width="1.51"/><path d="M-43,735L37,889L106,764Z" fill="#9db7ba" stroke="#9db7ba" stroke-width="1.51"/><path d="M55,660L9,696L106,764Z" fill="#9ec4bd" stroke="#9ec4bd" stroke-width="1.51"/><path d="M-61,525L55,660L108,517Z" fill="#a6d4bf" stroke="#a6d4bf" stroke-width="1.51"/><path d="M48,404L-61,525L108,517Z" fill="#aedbbe" stroke="#aedbbe" stroke-width="1.51"/><path d="M9,696L-43,735L106,764Z" fill="#9ec2be" stroke="#9ec2be" stroke-width="1.51"/><path d="M37,889L3,915L69,985Z" fill="#9aa3b1" stroke="#9aa3b1" stroke-width="1.51"/><path d="M-6,391L48,404L89,291Z" fill="#bbe3ba" stroke="#bbe3ba" stroke-width="1.51"/><path d="M69,985L-42,1005L97,1088Z" fill="#9997ac" stroke="#9997ac" stroke-width="1.51"/><path d="M-42,1005L-58,1053L97,1088Z" fill="#9995ad" stroke="#9995ad" stroke-width="1.51"/><path d="M-58,1053L72,1165L97,1088Z" fill="#958ea5" stroke="#958ea5" stroke-width="1.51"/><path d="M-51,316L-6,391L89,291Z" fill="#c1e5bc" stroke="#c1e5bc" stroke-width="1.51"/><path d="M52,198L-60,242L89,291Z" fill="#d1ecb9" stroke="#d1ecb9" stroke-width="1.51"/><path d="M-60,242L-51,316L89,291Z" fill="#cbeabc" stroke="#cbeabc" stroke-width="1.51"/><path d="M-6,391L-61,525L48,404Z" fill="#b4debf" stroke="#b4debf" stroke-width="1.51"/><path d="M-67,-18L42,51L68,-43Z" fill="#f0f9b8" stroke="#f0f9b8" stroke-width="1.51"/><path d="M-116,1137L-3,1246L72,1165Z" fill="#8e889a" stroke="#8e889a" stroke-width="1.51"/><path d="M-58,1053L-116,1137L72,1165Z" fill="#958da6" stroke="#958da6" stroke-width="1.51"/><path d="M-61,525L9,696L55,660Z" fill="#a4cec1" stroke="#a4cec1" stroke-width="1.51"/><path d="M3,915L-42,1005L69,985Z" fill="#9a9fb1" stroke="#9a9fb1" stroke-width="1.51"/><path d="M-48,-99L-67,-18L68,-43Z" fill="#f4fabf" stroke="#f4fabf" stroke-width="1.51"/><path d="M-43,735L3,915L37,889Z" fill="#9cb0b9" stroke="#9cb0b9" stroke-width="1.51"/><path d="M2,86L-60,242L52,198Z" fill="#def2b9" stroke="#def2b9" stroke-width="1.51"/><path d="M-61,525L-146,602L9,696Z" fill="#a6d1c6" stroke="#a6d1c6" stroke-width="1.51"/><path d="M-67,-18L2,86L42,51Z" fill="#edf8b8" stroke="#edf8b8" stroke-width="1.51"/><path d="M-99,536L-146,602L-61,525Z" fill="#aad8c9" stroke="#aad8c9" stroke-width="1.51"/><path d="M-43,735L-97,736L3,915Z" fill="#9eb8bf" stroke="#9eb8bf" stroke-width="1.51"/><path d="M-146,602L-97,736L-43,735Z" fill="#a3c9c7" stroke="#a3c9c7" stroke-width="1.51"/><path d="M-119,381L-61,525L-6,391Z" fill="#b6e0c3" stroke="#b6e0c3" stroke-width="1.51"/><path d="M-150,133L-60,242L2,86Z" fill="#e2f4be" stroke="#e2f4be" stroke-width="1.51"/><path d="M-97,736L-187,876L3,915Z" fill="#9eb2bf" stroke="#9eb2bf" stroke-width="1.51"/><path d="M-146,602L-43,735L9,696Z" fill="#a3c9c5" stroke="#a3c9c5" stroke-width="1.51"/><path d="M-67,-18L-150,133L2,86Z" fill="#ecf8bd" stroke="#ecf8bd" stroke-width="1.51"/><path d="M-144,978L-42,1005L3,915Z" fill="#9ba0b5" stroke="#9ba0b5" stroke-width="1.51"/><path d="M-187,876L-144,978L3,915Z" fill="#9da6bb" stroke="#9da6bb" stroke-width="1.51"/><path d="M-116,1137L-170,1153L-3,1246Z" fill="#908a9f" stroke="#908a9f" stroke-width="1.51"/><path d="M-51,316L-119,381L-6,391Z" fill="#bee5c1" stroke="#bee5c1" stroke-width="1.51"/><path d="M-123,-39L-150,133L-67,-18Z" fill="#f2fabf" stroke="#f2fabf" stroke-width="1.51"/><path d="M-119,381L-99,536L-61,525Z" fill="#b2ddc6" stroke="#b2ddc6" stroke-width="1.51"/><path d="M-60,242L-138,311L-51,316Z" fill="#cceac1" stroke="#cceac1" stroke-width="1.51"/><path d="M-123,-39L-67,-18L-48,-99Z" fill="#f6fbc3" stroke="#f6fbc3" stroke-width="1.51"/><path d="M-144,978L-58,1053L-42,1005Z" fill="#9b9ab4" stroke="#9b9ab4" stroke-width="1.51"/><path d="M-150,133L-190,210L-60,242Z" fill="#dff3c2" stroke="#dff3c2" stroke-width="1.51"/><path d="M-138,311L-119,381L-51,316Z" fill="#c4e7c3" stroke="#c4e7c3" stroke-width="1.51"/><path d="M-174,-120L-123,-39L-48,-99Z" fill="#f8fdca" stroke="#f8fdca" stroke-width="1.51"/><path d="M-144,978L-116,1137L-58,1053Z" fill="#9c95b4" stroke="#9c95b4" stroke-width="1.51"/><path d="M-190,210L-138,311L-60,242Z" fill="#d4eec3" stroke="#d4eec3" stroke-width="1.51"/><path d="M-144,978L-170,1153L-116,1137Z" fill="#9b91b3" stroke="#9b91b3" stroke-width="1.51"/><path d="M-119,381L-146,602L-99,536Z" fill="#afdbc9" stroke="#afdbc9" stroke-width="1.51"/><path d="M-146,602L-187,876L-97,736Z" fill="#a2c3c9" stroke="#a2c3c9" stroke-width="1.51"/><path d="M-190,210L-146,602L-138,311Z" fill="#bfe5c8" stroke="#bfe5c8" stroke-width="1.51"/><path d="M-174,-120L-150,133L-123,-39Z" fill="#f5fbc4" stroke="#f5fbc4" stroke-width="1.51"/><path d="M-138,311L-146,602L-119,381Z" fill="#b8e1c8" stroke="#b8e1c8" stroke-width="1.51"/><path d="M-174,-120L-190,210L-150,133Z" fill="#eef8c4" stroke="#eef8c4" stroke-width="1.51"/><path d="M-187,876L-170,1153L-144,978Z" fill="#9d9cba" stroke="#9d9cba" stroke-width="1.51"/><path d="M-190,210L-187,876L-146,602Z" fill="#acd8cd" stroke="#acd8cd" stroke-width="1.51"/></svg>
